<mxfile host="app.diagrams.net" modified="2023-10-10T06:39:32.859Z" agent="Mozilla/5.0 (Macintosh; Intel Mac OS X 10_15_7) AppleWebKit/605.1.15 (KHTML, like Gecko) Version/15.5 Safari/605.1.15" etag="RNaICukViBOJB9brtBQ7" version="22.0.4" type="google">
  <diagram name="Page-1" id="q17thkZ2qw1JxOwLBn2O">
    <mxGraphModel grid="1" page="1" gridSize="10" guides="1" tooltips="1" connect="1" arrows="1" fold="1" pageScale="1" pageWidth="850" pageHeight="1100" math="1" shadow="0">
      <root>
        <mxCell id="0" />
        <mxCell id="1" parent="0" />
        <mxCell id="7x4Mbi4AJ-vY8Siddern-1" value="" style="ellipse;whiteSpace=wrap;html=1;strokeColor=#000000;" vertex="1" parent="1">
          <mxGeometry x="3680" y="1020" width="400" height="350" as="geometry" />
        </mxCell>
        <mxCell id="7x4Mbi4AJ-vY8Siddern-2" value="Switches" style="text;whiteSpace=wrap;html=1;fillColor=none;fontSize=50;" vertex="1" parent="1">
          <mxGeometry x="3580" y="1220" width="270" height="40" as="geometry" />
        </mxCell>
        <mxCell id="7x4Mbi4AJ-vY8Siddern-4" value="&lt;font style=&quot;font-size: 14px;&quot;&gt;$$F_{switch}$$&lt;/font&gt;" style="ellipse;whiteSpace=wrap;html=1;aspect=fixed;fillColor=#A9C4EB;" vertex="1" parent="1">
          <mxGeometry x="3710" y="1110" width="80" height="80" as="geometry" />
        </mxCell>
        <mxCell id="7x4Mbi4AJ-vY8Siddern-5" value="&lt;div&gt;&lt;font style=&quot;font-size: 14px;&quot;&gt;$$H_{power}$$&lt;/font&gt;&lt;/div&gt;" style="ellipse;whiteSpace=wrap;html=1;aspect=fixed;fillColor=#CCCCCC;" vertex="1" parent="1">
          <mxGeometry x="3775" y="1260" width="80" height="80" as="geometry" />
        </mxCell>
        <mxCell id="7x4Mbi4AJ-vY8Siddern-6" value="" style="shape=flexArrow;endArrow=classic;html=1;rounded=0;fillColor=#000000;width=0.3225806451612903;endSize=1.064804469273743;endWidth=2.980717246350694;" edge="1" parent="1" source="7x4Mbi4AJ-vY8Siddern-5" target="7x4Mbi4AJ-vY8Siddern-4">
          <mxGeometry width="50" height="50" relative="1" as="geometry">
            <mxPoint x="4190" y="1191" as="sourcePoint" />
            <mxPoint x="4200" y="1149" as="targetPoint" />
          </mxGeometry>
        </mxCell>
        <mxCell id="7x4Mbi4AJ-vY8Siddern-7" value="&lt;font style=&quot;font-size: 14px;&quot;&gt;$$V_{manual}$$&lt;/font&gt;" style="ellipse;whiteSpace=wrap;html=1;aspect=fixed;fillColor=#FFFFFF;strokeColor=#080505;strokeWidth=1;" vertex="1" parent="1">
          <mxGeometry x="3825" y="1050" width="80" height="80" as="geometry" />
        </mxCell>
        <mxCell id="7x4Mbi4AJ-vY8Siddern-8" value="" style="shape=flexArrow;endArrow=classic;html=1;rounded=0;fillColor=#000000;width=0.3225806451612903;endSize=1.064804469273743;endWidth=2.980717246350694;" edge="1" parent="1" source="7x4Mbi4AJ-vY8Siddern-7" target="7x4Mbi4AJ-vY8Siddern-4">
          <mxGeometry width="50" height="50" relative="1" as="geometry">
            <mxPoint x="3767" y="1070" as="sourcePoint" />
            <mxPoint x="3763" y="1120" as="targetPoint" />
          </mxGeometry>
        </mxCell>
        <mxCell id="7x4Mbi4AJ-vY8Siddern-15" value="&lt;font style=&quot;font-size: 14px;&quot;&gt;$$V_{software}$$&lt;/font&gt;" style="ellipse;whiteSpace=wrap;html=1;aspect=fixed;fillColor=#FFFFFF;strokeColor=#080505;strokeWidth=1;" vertex="1" parent="1">
          <mxGeometry x="3840" y="1170" width="80" height="80" as="geometry" />
        </mxCell>
        <mxCell id="7x4Mbi4AJ-vY8Siddern-16" value="" style="shape=flexArrow;endArrow=classic;html=1;rounded=0;fillColor=#000000;width=0.3225806451612903;endSize=1.064804469273743;endWidth=2.980717246350694;" edge="1" parent="1" source="7x4Mbi4AJ-vY8Siddern-15" target="7x4Mbi4AJ-vY8Siddern-4">
          <mxGeometry width="50" height="50" relative="1" as="geometry">
            <mxPoint x="3839" y="1118" as="sourcePoint" />
            <mxPoint x="3795" y="1141" as="targetPoint" />
          </mxGeometry>
        </mxCell>
        <mxCell id="7x4Mbi4AJ-vY8Siddern-17" value="&lt;font style=&quot;font-size: 10px;&quot;&gt;Human Action&amp;nbsp;&lt;/font&gt;" style="ellipse;whiteSpace=wrap;html=1;aspect=fixed;fillColor=#FFFFFF;strokeColor=#F19C99;strokeWidth=2;dashed=1;dashPattern=8 8;" vertex="1" parent="1">
          <mxGeometry x="3955" y="1070" width="50" height="50" as="geometry" />
        </mxCell>
        <mxCell id="7x4Mbi4AJ-vY8Siddern-18" value="&lt;font style=&quot;font-size: 10px;&quot;&gt;Robot Action&amp;nbsp;&lt;/font&gt;" style="ellipse;whiteSpace=wrap;html=1;aspect=fixed;fillColor=#FFFFFF;strokeColor=#F19C99;strokeWidth=2;dashed=1;dashPattern=8 8;" vertex="1" parent="1">
          <mxGeometry x="3970" y="1150" width="50" height="50" as="geometry" />
        </mxCell>
        <mxCell id="7x4Mbi4AJ-vY8Siddern-19" value="" style="shape=flexArrow;endArrow=classic;html=1;rounded=0;width=0.3225806451612903;endSize=1.064804469273743;endWidth=2.980717246350694;strokeColor=#F19C99;entryX=0.5;entryY=0;entryDx=0;entryDy=0;" edge="1" parent="1" source="7x4Mbi4AJ-vY8Siddern-17" target="7x4Mbi4AJ-vY8Siddern-26">
          <mxGeometry width="50" height="50" relative="1" as="geometry">
            <mxPoint x="4160" y="1155" as="sourcePoint" />
            <mxPoint x="3936" y="1180" as="targetPoint" />
          </mxGeometry>
        </mxCell>
        <mxCell id="7x4Mbi4AJ-vY8Siddern-20" value="" style="shape=flexArrow;endArrow=classic;html=1;rounded=0;width=0.3225806451612903;endSize=1.064804469273743;endWidth=2.980717246350694;strokeColor=#F19C99;entryX=1;entryY=0.5;entryDx=0;entryDy=0;" edge="1" parent="1" source="7x4Mbi4AJ-vY8Siddern-18" target="7x4Mbi4AJ-vY8Siddern-26">
          <mxGeometry width="50" height="50" relative="1" as="geometry">
            <mxPoint x="3952" y="1150" as="sourcePoint" />
            <mxPoint x="3960" y="1194" as="targetPoint" />
          </mxGeometry>
        </mxCell>
        <mxCell id="7x4Mbi4AJ-vY8Siddern-21" value="" style="shape=flexArrow;endArrow=classic;html=1;rounded=0;fillColor=#000000;width=0.3225806451612903;endSize=1.064804469273743;endWidth=2.980717246350694;" edge="1" parent="1" source="7x4Mbi4AJ-vY8Siddern-5" target="7x4Mbi4AJ-vY8Siddern-15">
          <mxGeometry width="50" height="50" relative="1" as="geometry">
            <mxPoint x="3809" y="1273" as="sourcePoint" />
            <mxPoint x="3776" y="1197" as="targetPoint" />
          </mxGeometry>
        </mxCell>
        <mxCell id="7x4Mbi4AJ-vY8Siddern-22" value="&lt;font style=&quot;font-size: 10px;&quot;&gt;Eccentric Behavior&lt;/font&gt;" style="ellipse;whiteSpace=wrap;html=1;aspect=fixed;fillColor=#FFFFFF;strokeColor=#F19C99;strokeWidth=2;dashed=1;dashPattern=8 8;" vertex="1" parent="1">
          <mxGeometry x="3960" y="1240" width="50" height="50" as="geometry" />
        </mxCell>
        <mxCell id="7x4Mbi4AJ-vY8Siddern-23" value="" style="shape=flexArrow;endArrow=classic;html=1;rounded=0;width=0.3225806451612903;endSize=1.064804469273743;endWidth=2.980717246350694;strokeColor=#F19C99;" edge="1" parent="1" source="7x4Mbi4AJ-vY8Siddern-22" target="7x4Mbi4AJ-vY8Siddern-15">
          <mxGeometry width="50" height="50" relative="1" as="geometry">
            <mxPoint x="3970" y="1208" as="sourcePoint" />
            <mxPoint x="3930" y="1214" as="targetPoint" />
          </mxGeometry>
        </mxCell>
        <mxCell id="7x4Mbi4AJ-vY8Siddern-24" value="&lt;font style=&quot;font-size: 10px;&quot;&gt;Bad Update&lt;/font&gt;" style="ellipse;whiteSpace=wrap;html=1;aspect=fixed;fillColor=#FFFFFF;strokeColor=#F19C99;strokeWidth=2;dashed=1;dashPattern=8 8;" vertex="1" parent="1">
          <mxGeometry x="3905" y="1280" width="50" height="50" as="geometry" />
        </mxCell>
        <mxCell id="7x4Mbi4AJ-vY8Siddern-25" value="" style="shape=flexArrow;endArrow=classic;html=1;rounded=0;width=0.3225806451612903;endSize=1.064804469273743;endWidth=2.980717246350694;strokeColor=#F19C99;" edge="1" parent="1" source="7x4Mbi4AJ-vY8Siddern-24" target="7x4Mbi4AJ-vY8Siddern-15">
          <mxGeometry width="50" height="50" relative="1" as="geometry">
            <mxPoint x="3973" y="1263" as="sourcePoint" />
            <mxPoint x="3925" y="1239" as="targetPoint" />
          </mxGeometry>
        </mxCell>
        <mxCell id="7x4Mbi4AJ-vY8Siddern-26" value="" style="ellipse;whiteSpace=wrap;html=1;aspect=fixed;fillColor=#000000;strokeColor=#000000;" vertex="1" parent="1">
          <mxGeometry x="3930" y="1140" width="10" height="10" as="geometry" />
        </mxCell>
        <mxCell id="7x4Mbi4AJ-vY8Siddern-28" value="" style="shape=flexArrow;endArrow=classic;html=1;rounded=0;width=0.3225806451612903;endSize=1.064804469273743;endWidth=2.980717246350694;strokeColor=#F19C99;exitX=0.5;exitY=1;exitDx=0;exitDy=0;" edge="1" parent="1" source="7x4Mbi4AJ-vY8Siddern-26" target="7x4Mbi4AJ-vY8Siddern-15">
          <mxGeometry width="50" height="50" relative="1" as="geometry">
            <mxPoint x="3961" y="1126" as="sourcePoint" />
            <mxPoint x="3945" y="1150" as="targetPoint" />
          </mxGeometry>
        </mxCell>
        <mxCell id="7x4Mbi4AJ-vY8Siddern-29" value="" style="shape=flexArrow;endArrow=classic;html=1;rounded=0;width=0.3225806451612903;endSize=1.064804469273743;endWidth=2.980717246350694;strokeColor=#F19C99;exitX=0;exitY=0;exitDx=0;exitDy=0;" edge="1" parent="1" source="7x4Mbi4AJ-vY8Siddern-26" target="7x4Mbi4AJ-vY8Siddern-7">
          <mxGeometry width="50" height="50" relative="1" as="geometry">
            <mxPoint x="3982" y="1166" as="sourcePoint" />
            <mxPoint x="3950" y="1155" as="targetPoint" />
          </mxGeometry>
        </mxCell>
      </root>
    </mxGraphModel>
  </diagram>
</mxfile>
